<svg width="16" height="16" viewBox="0 0 16 16" fill="none" xmlns="http://www.w3.org/2000/svg">
<path d="M6.41357 10.6667L7.41357 11.6667L9.58024 9.66675" stroke="#FEFEFE" stroke-width="1.5" stroke-linecap="round" stroke-linejoin="round"/>
<path d="M5.87329 1.33325L3.45996 3.75325" stroke="#FEFEFE" stroke-width="1.5" stroke-miterlimit="10" stroke-linecap="round" stroke-linejoin="round"/>
<path d="M10.1265 1.33325L12.5398 3.75325" stroke="#FEFEFE" stroke-width="1.5" stroke-miterlimit="10" stroke-linecap="round" stroke-linejoin="round"/>
<path d="M1.3335 5.23324C1.3335 3.9999 1.9935 3.8999 2.8135 3.8999H13.1868C14.0068 3.8999 14.6668 3.9999 14.6668 5.23324C14.6668 6.66657 14.0068 6.56657 13.1868 6.56657H2.8135C1.9935 6.56657 1.3335 6.66657 1.3335 5.23324Z" stroke="#FEFEFE" stroke-width="1.5"/>
<path d="M3.27344 12.4267C3.48677 13.7201 4.0001 14.6667 5.90677 14.6667H9.92677C12.0001 14.6667 12.3068 13.7601 12.5468 12.5067L13.6668 6.66675" stroke="#FEFEFE" stroke-width="1.5" stroke-linecap="round"/>
<path d="M2.3335 6.66675L2.7935 9.50008" stroke="#FEFEFE" stroke-width="1.5" stroke-linecap="round"/>
</svg>
