<svg width="22" height="22" viewBox="0 0 22 22" fill="none" xmlns="http://www.w3.org/2000/svg">
<path d="M8.07578 1.83337L4.75745 5.16087" stroke="#FEFEFE" stroke-width="1.5" stroke-miterlimit="10" stroke-linecap="round" stroke-linejoin="round"/>
<path d="M13.9242 1.83337L17.2425 5.16087" stroke="#FEFEFE" stroke-width="1.5" stroke-miterlimit="10" stroke-linecap="round" stroke-linejoin="round"/>
<path d="M1.83337 7.19588C1.83337 5.50005 2.74087 5.36255 3.86837 5.36255H18.1317C19.2592 5.36255 20.1667 5.50005 20.1667 7.19588C20.1667 9.16672 19.2592 9.02922 18.1317 9.02922H3.86837C2.74087 9.02922 1.83337 9.16672 1.83337 7.19588Z" stroke="#FEFEFE" stroke-width="1.5"/>
<path d="M8.94666 12.8334V16.0875" stroke="#FEFEFE" stroke-width="1.5" stroke-linecap="round"/>
<path d="M13.1633 12.8334V16.0875" stroke="#FEFEFE" stroke-width="1.5" stroke-linecap="round"/>
<path d="M3.20837 9.16663L4.50087 17.0866C4.79421 18.865 5.50004 20.1666 8.12171 20.1666H13.6492C16.5 20.1666 16.9217 18.92 17.2517 17.1966L18.7917 9.16663" stroke="#FEFEFE" stroke-width="1.5" stroke-linecap="round"/>
</svg>
