<svg width="16" height="16" viewBox="0 0 16 16" fill="none" xmlns="http://www.w3.org/2000/svg">
<path fill-rule="evenodd" clip-rule="evenodd" d="M6.7529 3.91667C6.79578 3.26516 7.33781 2.75 8.00016 2.75C8.66252 2.75 9.20455 3.26516 9.24743 3.91667H6.7529ZM5.25016 5.41667V6C5.25016 6.41421 5.58595 6.75 6.00016 6.75C6.41438 6.75 6.75016 6.41421 6.75016 6V5.41667H9.25016V6C9.25016 6.41421 9.58595 6.75 10.0002 6.75C10.4144 6.75 10.7502 6.41421 10.7502 6V5.41667H11.3056L11.8569 12.5833H4.14341L4.69469 5.41667H5.25016ZM5.2514 3.91667C5.29546 2.43643 6.50926 1.25 8.00016 1.25C9.49107 1.25 10.7049 2.43643 10.7489 3.91667H12.0002C12.3921 3.91667 12.7179 4.2184 12.748 4.60914L13.4146 13.2758C13.4306 13.4841 13.3591 13.6896 13.2171 13.8429C13.0752 13.9962 12.8757 14.0833 12.6668 14.0833H3.3335C3.12459 14.0833 2.92515 13.9962 2.78321 13.8429C2.64126 13.6896 2.56968 13.4841 2.58571 13.2758L3.25237 4.60914C3.28243 4.2184 3.60826 3.91667 4.00016 3.91667H5.2514Z" fill="#FEFEFE"/>
</svg>
