<svg width="20" height="20" viewBox="0 0 20 20" fill="none" xmlns="http://www.w3.org/2000/svg">
<path fill-rule="evenodd" clip-rule="evenodd" d="M1.6665 10.0128C1.6665 5.62293 5.17484 1.66699 10.0165 1.66699C14.7498 1.66699 18.3332 5.54781 18.3332 9.98781C18.3332 15.1372 14.1332 18.3337 9.99984 18.3337C8.63317 18.3337 7.1165 17.9664 5.89984 17.2487C5.47484 16.99 5.1165 16.798 4.65817 16.9482L2.97484 17.449C2.54984 17.5825 2.1665 17.2487 2.2915 16.798L2.84984 14.9286C2.9415 14.6698 2.92484 14.3944 2.7915 14.1774C2.07484 12.8588 1.6665 11.4149 1.6665 10.0128ZM6.14153 11.0894C5.5582 11.0894 5.07486 10.6054 5.07486 10.0212C5.07486 9.42863 5.54986 8.95291 6.14153 8.95291C6.7332 8.95291 7.2082 9.42863 7.2082 10.0212C7.2082 10.6054 6.7332 11.0811 6.14153 11.0894ZM8.9165 10.0132C8.9165 10.6057 9.3915 11.0814 9.98317 11.0898C10.5748 11.0898 11.0498 10.6057 11.0498 10.0215C11.0498 9.42895 10.5748 8.95323 9.98317 8.95323C9.39984 8.94489 8.9165 9.42895 8.9165 10.0132ZM12.7582 10.0215C12.7582 10.6057 13.2332 11.0898 13.8249 11.0898C14.4165 11.0898 14.8915 10.6057 14.8915 10.0215C14.8915 9.42897 14.4165 8.95325 13.8249 8.95325C13.2332 8.95325 12.7582 9.42897 12.7582 10.0215Z" fill="#614FE0"/>
</svg>
