<svg width="28" height="28" viewBox="0 0 28 28" fill="none" xmlns="http://www.w3.org/2000/svg">
<path d="M14 6.48657H25.6667" stroke="#14181E" stroke-width="1.5" stroke-miterlimit="10" stroke-linecap="round" stroke-linejoin="round"/>
<path d="M18.2583 12.2499H16.59C14.5133 12.2499 14 11.7366 14 9.68325V4.89992C14 2.84659 14.5133 2.33325 16.59 2.33325H23.0767C25.1533 2.33325 25.6667 2.84659 25.6667 4.89992V9.69492C25.6667 11.7483 25.1533 12.2616 23.0767 12.2616" stroke="#14181E" stroke-width="1.5" stroke-linecap="round" stroke-linejoin="round"/>
<path d="M2.33334 19.9033H14" stroke="#14181E" stroke-width="1.5" stroke-miterlimit="10" stroke-linecap="round" stroke-linejoin="round"/>
<path d="M6.41668 25.6667H4.92335C2.84668 25.6667 2.33334 25.1533 2.33334 23.1V18.3167C2.33334 16.2633 2.84668 15.75 4.92335 15.75H11.41C13.4867 15.75 14 16.2633 14 18.3167V23.1117C14 25.165 13.4867 25.6783 11.41 25.6783" stroke="#14181E" stroke-width="1.5" stroke-linecap="round" stroke-linejoin="round"/>
<path d="M25.6667 17.5C25.6667 22.015 22.015 25.6667 17.5 25.6667L18.725 23.625" stroke="#14181E" stroke-width="1.5" stroke-linecap="round" stroke-linejoin="round"/>
<path d="M2.33334 10.4999C2.33334 5.98492 5.98501 2.33325 10.5 2.33325L9.27502 4.37492" stroke="#292D32" stroke-width="1.5" stroke-linecap="round" stroke-linejoin="round"/>
</svg>
