<svg width="20" height="20" viewBox="0 0 20 20" fill="none" xmlns="http://www.w3.org/2000/svg">
<path fill-rule="evenodd" clip-rule="evenodd" d="M6.50833 1.66699H13.4925C16.0667 1.66699 17.5 3.15033 17.5 5.69199V14.3003C17.5 16.8837 16.0667 18.3337 13.4925 18.3337H6.50833C3.975 18.3337 2.5 16.8837 2.5 14.3003V5.69199C2.5 3.15033 3.975 1.66699 6.50833 1.66699ZM6.73337 5.55026V5.54193H9.2242C9.58337 5.54193 9.87503 5.83359 9.87503 6.19109C9.87503 6.55859 9.58337 6.85026 9.2242 6.85026H6.73337C6.3742 6.85026 6.08337 6.55859 6.08337 6.20026C6.08337 5.84193 6.3742 5.55026 6.73337 5.55026ZM6.73354 10.6172H13.2669C13.6252 10.6172 13.9169 10.3255 13.9169 9.96717C13.9169 9.60884 13.6252 9.31634 13.2669 9.31634H6.73354C6.37437 9.31634 6.08354 9.60884 6.08354 9.96717C6.08354 10.3255 6.37437 10.6172 6.73354 10.6172ZM6.73334 14.4249H13.2667C13.5992 14.3916 13.85 14.1074 13.85 13.7749C13.85 13.4332 13.5992 13.1499 13.2667 13.1166H6.73334C6.48334 13.0916 6.24167 13.2082 6.10834 13.4249C5.97501 13.6332 5.97501 13.9082 6.10834 14.1249C6.24167 14.3332 6.48334 14.4582 6.73334 14.4249Z" fill="#614FE0"/>
</svg>
