<svg width="28" height="28" viewBox="0 0 28 28" fill="none" xmlns="http://www.w3.org/2000/svg">
<path d="M2.91666 16.4151V13.4284C2.91666 11.0134 4.88832 9.04175 7.30332 9.04175H20.6967C23.1117 9.04175 25.0833 11.0134 25.0833 13.4284V15.1084H22.7267C22.0733 15.1084 21.4783 15.3651 21.0467 15.8084C20.5567 16.2867 20.2767 16.9751 20.3467 17.7101C20.4517 18.9701 21.6067 19.8917 22.8667 19.8917H25.0833V21.2801C25.0833 23.6951 23.1117 25.6667 20.6967 25.6667H7.30332C4.88832 25.6667 2.91666 23.6951 2.91666 21.2801" stroke="#14181E" stroke-width="1.5" stroke-linecap="round" stroke-linejoin="round"/>
<path d="M14.3267 2.53161C15.7733 1.98328 17.325 3.05665 17.325 4.60832V9.04163" stroke="#14181E" stroke-width="1.5" stroke-linecap="round" stroke-linejoin="round"/>
<path d="M2.91666 14.4784V9.14679C2.91666 7.75846 3.76832 6.52174 5.06332 6.03174L9.69499 4.28174" stroke="#14181E" stroke-width="1.5" stroke-linecap="round" stroke-linejoin="round"/>
<path d="M26.32 16.2984V18.7018C26.32 19.3434 25.8067 19.8684 25.1533 19.8917H22.8667C21.6067 19.8917 20.4517 18.97 20.3467 17.71C20.2767 16.975 20.5567 16.2867 21.0467 15.8084C21.4783 15.365 22.0733 15.1084 22.7267 15.1084H25.1533C25.8067 15.1317 26.32 15.6567 26.32 16.2984Z" stroke="#14181E" stroke-width="1.5" stroke-linecap="round" stroke-linejoin="round"/>
<path d="M8.16666 14H16.3333" stroke="#14181E" stroke-width="1.5" stroke-linecap="round" stroke-linejoin="round"/>
</svg>
