<svg width="24" height="25" viewBox="0 0 24 25" fill="none" xmlns="http://www.w3.org/2000/svg">
<path d="M10.3301 17.0928H4.02942" stroke="#FEFEFE" stroke-width="1.5" stroke-linecap="round" stroke-linejoin="round"/>
<path d="M13.1405 7.40042H19.4412" stroke="#FEFEFE" stroke-width="1.5" stroke-linecap="round" stroke-linejoin="round"/>
<path fill-rule="evenodd" clip-rule="evenodd" d="M8.72629 7.34625C8.72629 6.0506 7.66813 5 6.36314 5C5.05816 5 4 6.0506 4 7.34625C4 8.64191 5.05816 9.69251 6.36314 9.69251C7.66813 9.69251 8.72629 8.64191 8.72629 7.34625Z" stroke="#FEFEFE" stroke-width="1.5" stroke-linecap="round" stroke-linejoin="round"/>
<path fill-rule="evenodd" clip-rule="evenodd" d="M20 17.0538C20 15.7581 18.9426 14.7075 17.6376 14.7075C16.3318 14.7075 15.2737 15.7581 15.2737 17.0538C15.2737 18.3494 16.3318 19.4 17.6376 19.4C18.9426 19.4 20 18.3494 20 17.0538Z" stroke="#FEFEFE" stroke-width="1.5" stroke-linecap="round" stroke-linejoin="round"/>
</svg>
