<svg width="23" height="23" viewBox="0 0 23 23" fill="none" xmlns="http://www.w3.org/2000/svg">
<path fill-rule="evenodd" clip-rule="evenodd" d="M18.98 11.677C18.98 11.1245 18.9304 10.5933 18.8383 10.0833H11.5V13.0972H15.6933C15.5127 14.0712 14.9638 14.8964 14.1385 15.4489V17.4039H16.6567C18.13 16.0474 18.98 14.0499 18.98 11.677Z" fill="#4285F4"/>
<path fill-rule="evenodd" clip-rule="evenodd" d="M11.5 19.2917C13.6038 19.2917 15.3675 18.594 16.6567 17.404L14.1386 15.449C13.4409 15.9165 12.5484 16.1928 11.5 16.1928C9.47066 16.1928 7.75295 14.8221 7.14024 12.9805H4.53711V14.9992C5.81919 17.5457 8.4542 19.2917 11.5 19.2917Z" fill="#34A853"/>
<path fill-rule="evenodd" clip-rule="evenodd" d="M7.14025 12.9803C6.98442 12.5128 6.89588 12.0134 6.89588 11.4999C6.89588 10.9864 6.98442 10.487 7.14025 10.0195V8.00073H4.53713C4.00942 9.05261 3.70837 10.2426 3.70837 11.4999C3.70837 12.7572 4.00942 13.9472 4.53713 14.9991L7.14025 12.9803Z" fill="#FBBC05"/>
<path fill-rule="evenodd" clip-rule="evenodd" d="M11.5 6.80722C12.644 6.80722 13.6711 7.20034 14.4786 7.97243L16.7134 5.73763C15.364 4.48034 13.6002 3.70825 11.5 3.70825C8.4542 3.70825 5.81919 5.4543 4.53711 8.00076L7.14024 10.0195C7.75295 8.17784 9.47066 6.80722 11.5 6.80722Z" fill="#EA4335"/>
</svg>
