<svg width="23" height="23" viewBox="0 0 23 23" fill="none" xmlns="http://www.w3.org/2000/svg">
<path d="M11.5003 3.5C9.3277 3.5 9.05504 3.5095 8.20174 3.54833C7.35009 3.58733 6.76878 3.72217 6.26013 3.92C5.73398 4.12433 5.28766 4.39767 4.843 4.8425C4.39802 5.28717 4.12469 5.7335 3.9197 6.2595C3.72137 6.76833 3.58638 7.34983 3.54804 8.20117C3.50988 9.0545 3.49988 9.32733 3.49988 11.5C3.49988 13.6727 3.50954 13.9445 3.54821 14.7978C3.58738 15.6495 3.7222 16.2308 3.91987 16.7395C4.12436 17.2657 4.39768 17.712 4.8425 18.1567C5.28699 18.6017 5.73331 18.8757 6.25913 19.08C6.76811 19.2778 7.34959 19.4127 8.20107 19.4517C9.05438 19.4905 9.32687 19.5 11.4993 19.5C13.6721 19.5 13.9439 19.4905 14.7972 19.4517C15.6488 19.4127 16.2308 19.2778 16.7398 19.08C17.2658 18.8757 17.7114 18.6017 18.1559 18.1567C18.6009 17.712 18.8742 17.2657 19.0792 16.7397C19.2759 16.2308 19.4109 15.6493 19.4509 14.798C19.4892 13.9447 19.4992 13.6727 19.4992 11.5C19.4992 9.32733 19.4892 9.05467 19.4509 8.20133C19.4109 7.34967 19.2759 6.76833 19.0792 6.25967C18.8742 5.7335 18.6009 5.28717 18.1559 4.8425C17.7109 4.3975 17.266 4.12417 16.7393 3.92C16.2293 3.72217 15.6477 3.58733 14.796 3.54833C13.9427 3.5095 13.6711 3.5 11.4978 3.5H11.5003ZM10.7827 4.94167C10.9957 4.94133 11.2333 4.94167 11.5003 4.94167C13.6362 4.94167 13.8894 4.94933 14.7329 4.98767C15.5128 5.02333 15.9362 5.15367 16.2182 5.26317C16.5915 5.40817 16.8576 5.5815 17.1375 5.8615C17.4175 6.1415 17.5908 6.40817 17.7361 6.7815C17.8456 7.06317 17.9761 7.4865 18.0116 8.2665C18.0499 9.10983 18.0583 9.36317 18.0583 11.4982C18.0583 13.6332 18.0499 13.8865 18.0116 14.7298C17.9759 15.5098 17.8456 15.9332 17.7361 16.2148C17.5911 16.5882 17.4175 16.854 17.1375 17.1338C16.8575 17.4138 16.5916 17.5872 16.2182 17.7322C15.9365 17.8422 15.5128 17.9722 14.7329 18.0078C13.8896 18.0462 13.6362 18.0545 11.5003 18.0545C9.3642 18.0545 9.11104 18.0462 8.26773 18.0078C7.48776 17.9718 7.06444 17.8415 6.78228 17.732C6.40896 17.587 6.1423 17.4137 5.86231 17.1337C5.58231 16.8537 5.40899 16.5877 5.26366 16.2142C5.15416 15.9325 5.02367 15.5092 4.98817 14.7292C4.94983 13.8858 4.94217 13.6325 4.94217 11.4962C4.94217 9.35983 4.94983 9.10783 4.98817 8.2645C5.02383 7.4845 5.15416 7.06117 5.26366 6.77917C5.40865 6.40583 5.58231 6.13917 5.86231 5.85917C6.1423 5.57917 6.40896 5.40583 6.78228 5.2605C7.06427 5.1505 7.48776 5.0205 8.26773 4.98467C9.00571 4.95133 9.2917 4.94133 10.7827 4.93967V4.94167ZM15.7705 6.27C15.2405 6.27 14.8105 6.6995 14.8105 7.22967C14.8105 7.75967 15.2405 8.18967 15.7705 8.18967C16.3005 8.18967 16.7305 7.75967 16.7305 7.22967C16.7305 6.69967 16.3005 6.26967 15.7705 6.26967V6.27ZM11.5003 7.39167C9.23154 7.39167 7.39209 9.23117 7.39209 11.5C7.39209 13.7688 9.23154 15.6075 11.5003 15.6075C13.7691 15.6075 15.6078 13.7688 15.6078 11.5C15.6078 9.23117 13.7689 7.39167 11.5001 7.39167H11.5003ZM11.5003 8.83333C12.9729 8.83333 14.1669 10.0272 14.1669 11.5C14.1669 12.9727 12.9729 14.1667 11.5003 14.1667C10.0275 14.1667 8.83372 12.9727 8.83372 11.5C8.83372 10.0272 10.0275 8.83333 11.5003 8.83333V8.83333Z" fill="url(#paint0_radial_68_2411)"/>
<path d="M11.5003 3.5C9.3277 3.5 9.05504 3.5095 8.20174 3.54833C7.35009 3.58733 6.76878 3.72217 6.26013 3.92C5.73398 4.12433 5.28766 4.39767 4.843 4.8425C4.39802 5.28717 4.12469 5.7335 3.9197 6.2595C3.72137 6.76833 3.58638 7.34983 3.54804 8.20117C3.50988 9.0545 3.49988 9.32733 3.49988 11.5C3.49988 13.6727 3.50954 13.9445 3.54821 14.7978C3.58738 15.6495 3.7222 16.2308 3.91987 16.7395C4.12436 17.2657 4.39768 17.712 4.8425 18.1567C5.28699 18.6017 5.73331 18.8757 6.25913 19.08C6.76811 19.2778 7.34959 19.4127 8.20107 19.4517C9.05438 19.4905 9.32687 19.5 11.4993 19.5C13.6721 19.5 13.9439 19.4905 14.7972 19.4517C15.6488 19.4127 16.2308 19.2778 16.7398 19.08C17.2658 18.8757 17.7114 18.6017 18.1559 18.1567C18.6009 17.712 18.8742 17.2657 19.0792 16.7397C19.2759 16.2308 19.4109 15.6493 19.4509 14.798C19.4892 13.9447 19.4992 13.6727 19.4992 11.5C19.4992 9.32733 19.4892 9.05467 19.4509 8.20133C19.4109 7.34967 19.2759 6.76833 19.0792 6.25967C18.8742 5.7335 18.6009 5.28717 18.1559 4.8425C17.7109 4.3975 17.266 4.12417 16.7393 3.92C16.2293 3.72217 15.6477 3.58733 14.796 3.54833C13.9427 3.5095 13.6711 3.5 11.4978 3.5H11.5003ZM10.7827 4.94167C10.9957 4.94133 11.2333 4.94167 11.5003 4.94167C13.6362 4.94167 13.8894 4.94933 14.7329 4.98767C15.5128 5.02333 15.9362 5.15367 16.2182 5.26317C16.5915 5.40817 16.8576 5.5815 17.1375 5.8615C17.4175 6.1415 17.5908 6.40817 17.7361 6.7815C17.8456 7.06317 17.9761 7.4865 18.0116 8.2665C18.0499 9.10983 18.0583 9.36317 18.0583 11.4982C18.0583 13.6332 18.0499 13.8865 18.0116 14.7298C17.9759 15.5098 17.8456 15.9332 17.7361 16.2148C17.5911 16.5882 17.4175 16.854 17.1375 17.1338C16.8575 17.4138 16.5916 17.5872 16.2182 17.7322C15.9365 17.8422 15.5128 17.9722 14.7329 18.0078C13.8896 18.0462 13.6362 18.0545 11.5003 18.0545C9.3642 18.0545 9.11104 18.0462 8.26773 18.0078C7.48776 17.9718 7.06444 17.8415 6.78228 17.732C6.40896 17.587 6.1423 17.4137 5.86231 17.1337C5.58231 16.8537 5.40899 16.5877 5.26366 16.2142C5.15416 15.9325 5.02367 15.5092 4.98817 14.7292C4.94983 13.8858 4.94217 13.6325 4.94217 11.4962C4.94217 9.35983 4.94983 9.10783 4.98817 8.2645C5.02383 7.4845 5.15416 7.06117 5.26366 6.77917C5.40865 6.40583 5.58231 6.13917 5.86231 5.85917C6.1423 5.57917 6.40896 5.40583 6.78228 5.2605C7.06427 5.1505 7.48776 5.0205 8.26773 4.98467C9.00571 4.95133 9.2917 4.94133 10.7827 4.93967V4.94167ZM15.7705 6.27C15.2405 6.27 14.8105 6.6995 14.8105 7.22967C14.8105 7.75967 15.2405 8.18967 15.7705 8.18967C16.3005 8.18967 16.7305 7.75967 16.7305 7.22967C16.7305 6.69967 16.3005 6.26967 15.7705 6.26967V6.27ZM11.5003 7.39167C9.23154 7.39167 7.39209 9.23117 7.39209 11.5C7.39209 13.7688 9.23154 15.6075 11.5003 15.6075C13.7691 15.6075 15.6078 13.7688 15.6078 11.5C15.6078 9.23117 13.7689 7.39167 11.5001 7.39167H11.5003ZM11.5003 8.83333C12.9729 8.83333 14.1669 10.0272 14.1669 11.5C14.1669 12.9727 12.9729 14.1667 11.5003 14.1667C10.0275 14.1667 8.83372 12.9727 8.83372 11.5C8.83372 10.0272 10.0275 8.83333 11.5003 8.83333V8.83333Z" fill="url(#paint1_radial_68_2411)"/>
<defs>
<radialGradient id="paint0_radial_68_2411" cx="0" cy="0" r="1" gradientUnits="userSpaceOnUse" gradientTransform="translate(7.74973 20.7323) rotate(-90) scale(15.8572 14.7478)">
<stop stop-color="#FFDD55"/>
<stop offset="0.1" stop-color="#FFDD55"/>
<stop offset="0.5" stop-color="#FF543E"/>
<stop offset="1" stop-color="#C837AB"/>
</radialGradient>
<radialGradient id="paint1_radial_68_2411" cx="0" cy="0" r="1" gradientUnits="userSpaceOnUse" gradientTransform="translate(0.819902 4.65261) rotate(78.6811) scale(7.08821 29.2168)">
<stop stop-color="#3771C8"/>
<stop offset="0.128" stop-color="#3771C8"/>
<stop offset="1" stop-color="#6600FF" stop-opacity="0"/>
</radialGradient>
</defs>
</svg>
