<svg width="20" height="20" viewBox="0 0 20 20" fill="none" xmlns="http://www.w3.org/2000/svg">
<path fill-rule="evenodd" clip-rule="evenodd" d="M2.9165 8.59846C2.9165 4.76523 6.11974 1.66699 9.99438 1.66699C13.8799 1.66699 17.0832 4.76523 17.0832 8.59846C17.0832 10.5301 16.3807 12.3233 15.2244 13.8433C13.9488 15.5199 12.3766 16.9807 10.607 18.1273C10.2019 18.3923 9.8364 18.4123 9.39188 18.1273C7.61212 16.9807 6.03991 15.5199 4.77525 13.8433C3.61816 12.3233 2.9165 10.5301 2.9165 8.59846ZM7.66162 8.81471C7.66162 10.0988 8.70948 11.1088 9.9943 11.1088C11.28 11.1088 12.3379 10.0988 12.3379 8.81471C12.3379 7.54058 11.28 6.48145 9.9943 6.48145C8.70948 6.48145 7.66162 7.54058 7.66162 8.81471Z" fill="#614FE0"/>
</svg>
