<svg width="48" height="48" viewBox="0 0 48 48" fill="none" xmlns="http://www.w3.org/2000/svg">
<path d="M24 18.4399V21.7699" stroke="#14181E" stroke-width="1.5" stroke-miterlimit="10" stroke-linecap="round"/>
<path d="M24.0199 14C20.3399 14 17.3599 16.98 17.3599 20.66V22.76C17.3599 23.44 17.0799 24.46 16.7299 25.04L15.4599 27.16C14.6799 28.47 15.2199 29.93 16.6599 30.41C21.4399 32 26.6099 32 31.3899 30.41C32.7399 29.96 33.3199 28.38 32.5899 27.16L31.3199 25.04C30.9699 24.46 30.6899 23.43 30.6899 22.76V20.66C30.6799 17 27.6799 14 24.0199 14Z" stroke="#14181E" stroke-width="1.5" stroke-miterlimit="10" stroke-linecap="round"/>
<path d="M27.3299 30.8199C27.3299 32.6499 25.8299 34.1499 23.9999 34.1499C23.0899 34.1499 22.2499 33.7699 21.6499 33.1699C21.0499 32.5699 20.6699 31.7299 20.6699 30.8199" stroke="#14181E" stroke-width="1.5" stroke-miterlimit="10"/>
</svg>
