<svg width="48" height="48" viewBox="0 0 48 48" fill="none" xmlns="http://www.w3.org/2000/svg">
<path d="M24 18.4399V21.7699" stroke="#14181E" stroke-width="1.5" stroke-miterlimit="10" stroke-linecap="round"/>
<path d="M32.5899 27.17C33.3199 28.39 32.7399 29.97 31.3899 30.42C26.6099 32.01 21.4399 32.01 16.6599 30.42C15.2199 29.94 14.6699 28.48 15.4599 27.17L16.7299 25.05C17.0799 24.47 17.3599 23.44 17.3599 22.77V20.67C17.3599 16.98 20.3399 14 24.0199 14C27.6799 14 30.6799 17 30.6799 20.66V22.76C30.6799 22.94 30.6999 23.14 30.7299 23.35" stroke="#14181E" stroke-width="1.5" stroke-miterlimit="10" stroke-linecap="round"/>
<path d="M27.3299 30.8201C27.3299 32.6501 25.8299 34.1501 23.9999 34.1501C23.0899 34.1501 22.2499 33.7701 21.6499 33.1701C21.0499 32.5701 20.6699 31.7301 20.6699 30.8201" stroke="#14181E" stroke-width="1.5" stroke-miterlimit="10"/>
</svg>
