<svg width="24" height="25" viewBox="0 0 24 25" fill="none" xmlns="http://www.w3.org/2000/svg">
<path d="M14.53 9.96992L9.47004 15.0299C8.82004 14.3799 8.42004 13.4899 8.42004 12.4999C8.42004 10.5199 10.02 8.91992 12 8.91992C12.99 8.91992 13.88 9.31992 14.53 9.96992Z" stroke="#59616C" stroke-width="2" stroke-linecap="round" stroke-linejoin="round"/>
<path d="M17.82 6.26998C16.07 4.94998 14.07 4.22998 12 4.22998C8.46997 4.22998 5.17997 6.30998 2.88997 9.90998C1.98997 11.32 1.98997 13.69 2.88997 15.1C3.67997 16.34 4.59997 17.41 5.59997 18.27" stroke="#59616C" stroke-width="2" stroke-linecap="round" stroke-linejoin="round"/>
<path d="M8.42004 20.0299C9.56004 20.5099 10.77 20.7699 12 20.7699C15.53 20.7699 18.82 18.6899 21.11 15.0899C22.01 13.6799 22.01 11.3099 21.11 9.89993C20.78 9.37993 20.42 8.88993 20.05 8.42993" stroke="#59616C" stroke-width="2" stroke-linecap="round" stroke-linejoin="round"/>
<path d="M15.5099 13.2C15.2499 14.61 14.0999 15.76 12.6899 16.02" stroke="#59616C" stroke-width="2" stroke-linecap="round" stroke-linejoin="round"/>
<path d="M9.47 15.03L2 22.5" stroke="#59616C" stroke-width="2" stroke-linecap="round" stroke-linejoin="round"/>
<path d="M22 2.5L14.53 9.97" stroke="#59616C" stroke-width="2" stroke-linecap="round" stroke-linejoin="round"/>
</svg>
