<svg width="25" height="24" viewBox="0 0 25 24" fill="none" xmlns="http://www.w3.org/2000/svg">
<path d="M3.21045 15.71C3.21045 20.2 5.01045 22 9.50045 22H14.8904C19.3804 22 21.1804 20.2 21.1804 15.71V11.22" stroke="#FEFEFE" stroke-width="1.5" stroke-linecap="round" stroke-linejoin="round"/>
<path d="M12.2004 12C14.0304 12 15.3804 10.51 15.2004 8.68L14.5404 2H9.87043L9.20043 8.68C9.02043 10.51 10.3704 12 12.2004 12Z" stroke="#FEFEFE" stroke-width="1.5" stroke-linecap="round" stroke-linejoin="round"/>
<path d="M18.5105 12C20.5305 12 22.0105 10.36 21.8105 8.35L21.5305 5.6C21.1705 3 20.1705 2 17.5505 2H14.5005L15.2005 9.01C15.3705 10.66 16.8605 12 18.5105 12Z" stroke="#FEFEFE" stroke-width="1.5" stroke-linecap="round" stroke-linejoin="round"/>
<path d="M5.84044 12C7.49044 12 8.98044 10.66 9.14044 9.01L9.36044 6.8L9.84044 2H6.79044C4.17044 2 3.17044 3 2.81044 5.6L2.54044 8.35C2.34044 10.36 3.82044 12 5.84044 12Z" stroke="#FEFEFE" stroke-width="1.5" stroke-linecap="round" stroke-linejoin="round"/>
<path d="M12.2004 17C10.5304 17 9.70044 17.83 9.70044 19.5V22H14.7004V19.5C14.7004 17.83 13.8704 17 12.2004 17Z" stroke="#FEFEFE" stroke-width="1.5" stroke-linecap="round" stroke-linejoin="round"/>
</svg>
