<svg width="24" height="24" viewBox="0 0 24 24" fill="none" xmlns="http://www.w3.org/2000/svg">
<path d="M8.80994 2L5.18994 5.63" stroke="#FEFEFE" stroke-width="1.5" stroke-miterlimit="10" stroke-linecap="round" stroke-linejoin="round"/>
<path d="M15.1899 2L18.8099 5.63" stroke="#FEFEFE" stroke-width="1.5" stroke-miterlimit="10" stroke-linecap="round" stroke-linejoin="round"/>
<path d="M2 7.85001C2 6.00001 2.99 5.85001 4.22 5.85001H19.78C21.01 5.85001 22 6.00001 22 7.85001C22 10 21.01 9.85001 19.78 9.85001H4.22C2.99 9.85001 2 10 2 7.85001Z" stroke="#FEFEFE" stroke-width="1.5"/>
<path d="M9.76001 14V17.55" stroke="#FEFEFE" stroke-width="1.5" stroke-linecap="round"/>
<path d="M14.36 14V17.55" stroke="#FEFEFE" stroke-width="1.5" stroke-linecap="round"/>
<path d="M4.91003 18.64C5.23003 20.58 6.00003 22 8.86003 22H14.89C18 22 18.46 20.64 18.82 18.76L20.5 10" stroke="#FEFEFE" stroke-width="1.5" stroke-linecap="round"/>
<path d="M3.5 10L4.22 14.38" stroke="#FEFEFE" stroke-width="1.5" stroke-linecap="round"/>
</svg>
